{
	"accessors": [
		{
			"bufferView": 2,
			"componentType": 5126,
			"count": 5192,
			"max": [791.6583251953125, 864.04791259765625, 190.18624877929688],
			"min": [
				-35.603614807128906,
				-35.603645324707031,
				3.9458281993865967
			],
			"type": "VEC3"
		},
		{
			"bufferView": 2,
			"byteOffset": 62304,
			"componentType": 5126,
			"count": 5192,
			"max": [1, 1, 1],
			"min": [-1, -1, -1],
			"type": "VEC3"
		},
		{
			"bufferView": 3,
			"componentType": 5126,
			"count": 5192,
			"max": [1, 0.99999916553497314, 0.99855595827102661, 1],
			"min": [
				-0.99999517202377319,
				-0.99999815225601196,
				-0.98930078744888306,
				1
			],
			"type": "VEC4"
		},
		{
			"bufferView": 1,
			"componentType": 5126,
			"count": 5192,
			"max": [0.99890518188476562, 0.99799996614456177],
			"min": [0.0015191566199064255, 0.0020000000949949026],
			"type": "VEC2"
		},
		{
			"bufferView": 0,
			"componentType": 5125,
			"count": 20112,
			"max": [5191],
			"min": [0],
			"type": "SCALAR"
		},
		{
			"bufferView": 2,
			"byteOffset": 124608,
			"componentType": 5126,
			"count": 65532,
			"max": [704.3104248046875, 622.76123046875, 490.86447143554688],
			"min": [
				-68.500099182128906,
				-239.24971008300781,
				-470.50424194335938
			],
			"type": "VEC3"
		},
		{
			"bufferView": 2,
			"byteOffset": 910992,
			"componentType": 5126,
			"count": 65532,
			"max": [
				0.99999988079071045,
				0.99999982118606567,
				0.99999988079071045
			],
			"min": [-1, -0.99999994039535522, -0.99999988079071045],
			"type": "VEC3"
		},
		{
			"bufferView": 3,
			"byteOffset": 83072,
			"componentType": 5126,
			"count": 65532,
			"max": [0.99999994039535522, 1, 0.99999642372131348, 1],
			"min": [-0.99999994039535522, -0.99999982118606567, -1, -1],
			"type": "VEC4"
		},
		{
			"bufferView": 1,
			"byteOffset": 41536,
			"componentType": 5126,
			"count": 65532,
			"max": [1.0802888870239258, 1.7576323747634888],
			"min": [0.0019999996293336153, 0.0019999649375677109],
			"type": "VEC2"
		},
		{
			"bufferView": 0,
			"byteOffset": 80448,
			"componentType": 5125,
			"count": 335163,
			"max": [65531],
			"min": [0],
			"type": "SCALAR"
		},
		{
			"bufferView": 2,
			"byteOffset": 1697376,
			"componentType": 5126,
			"count": 18934,
			"max": [825.0782470703125, 395.51589965820312, 490.864501953125],
			"min": [49.9603271484375, -239.249755859375, -470.50421142578125],
			"type": "VEC3"
		},
		{
			"bufferView": 2,
			"byteOffset": 1924584,
			"componentType": 5126,
			"count": 18934,
			"max": [0.99999994039535522, 0.9999997615814209, 1],
			"min": [-0.99999982118606567, -0.99999988079071045, -1],
			"type": "VEC3"
		},
		{
			"bufferView": 3,
			"byteOffset": 1131584,
			"componentType": 5126,
			"count": 18934,
			"max": [1, 0.99996930360794067, 0.99999940395355225, 1],
			"min": [-0.99999433755874634, -0.99993157386779785, -1, -1],
			"type": "VEC4"
		},
		{
			"bufferView": 1,
			"byteOffset": 565792,
			"componentType": 5126,
			"count": 18934,
			"max": [1.0802888870239258, 1.7576323747634888],
			"min": [0.0019999996293336153, 0.0019999649375677109],
			"type": "VEC2"
		},
		{
			"bufferView": 0,
			"byteOffset": 1421100,
			"componentType": 5125,
			"count": 100983,
			"max": [18933],
			"min": [0],
			"type": "SCALAR"
		}
	],
	"asset": {
		"extras": {
			"author": "Zuo Modern (https://sketchfab.com/zuo)",
			"license": "CC-BY-NC-ND-4.0 (http://creativecommons.org/licenses/by-nc-nd/4.0/)",
			"source": "https://sketchfab.com/models/a8bc90998a2b4b6499c9ebd12527fa3f",
			"title": "Morgan Arm Chair Dark Gray - 101186"
		},
		"generator": "Sketchfab-3.35.6",
		"version": "2.0"
	},
	"bufferViews": [
		{
			"buffer": 0,
			"byteLength": 1825032,
			"byteOffset": 0,
			"name": "floatBufferViews",
			"target": 34963
		},
		{
			"buffer": 0,
			"byteLength": 717264,
			"byteOffset": 1825032,
			"byteStride": 8,
			"name": "floatBufferViews",
			"target": 34962
		},
		{
			"buffer": 0,
			"byteLength": 2151792,
			"byteOffset": 2542296,
			"byteStride": 12,
			"name": "floatBufferViews",
			"target": 34962
		},
		{
			"buffer": 0,
			"byteLength": 1434528,
			"byteOffset": 4694088,
			"byteStride": 16,
			"name": "floatBufferViews",
			"target": 34962
		}
	],
	"buffers": [
		{
			"byteLength": 6128616,
			"uri": "scene.bin"
		}
	],
	"images": [
		{
			"uri": "textures/Material_3_baseColor.jpeg"
		},
		{
			"uri": "textures/101095_baseColor_black.jpg"
		}
	],
	"materials": [
		{
			"doubleSided": true,
			"name": "Material_3",
			"pbrMetallicRoughness": {
				"baseColorFactor": [1, 1, 1, 1],
				"baseColorTexture": {
					"index": 0,
					"texCoord": 0
				},
				"metallicFactor": 0,
				"roughnessFactor": 0.64805640239999995
			}
		},
		{
			"doubleSided": true,
			"name": "101095",
			"pbrMetallicRoughness": {
				"baseColorFactor": [1, 1, 1, 1],
				"baseColorTexture": {
					"index": 1,
					"texCoord": 0
				},
				"metallicFactor": 0,
				"roughnessFactor": 0.74828506100000003
			}
		}
	],
	"meshes": [
		{
			"name": "Circle117_Material #3_0",
			"primitives": [
				{
					"attributes": {
						"NORMAL": 1,
						"POSITION": 0,
						"TANGENT": 2,
						"TEXCOORD_0": 3
					},
					"indices": 4,
					"material": 0,
					"mode": 4
				}
			]
		},
		{
			"name": "Rectangle081_101095_0",
			"primitives": [
				{
					"attributes": {
						"NORMAL": 6,
						"POSITION": 5,
						"TANGENT": 7,
						"TEXCOORD_0": 8
					},
					"indices": 9,
					"material": 1,
					"mode": 4
				}
			]
		},
		{
			"name": "Rectangle081_101095_0",
			"primitives": [
				{
					"attributes": {
						"NORMAL": 11,
						"POSITION": 10,
						"TANGENT": 12,
						"TEXCOORD_0": 13
					},
					"indices": 14,
					"material": 1,
					"mode": 4
				}
			]
		}
	],
	"nodes": [
		{
			"children": [1],
			"name": "RootNode (gltf orientation matrix)",
			"rotation": [-0.70710678118654746, -0, -0, 0.70710678118654757]
		},
		{
			"children": [2],
			"name": "RootNode (model correction matrix)"
		},
		{
			"children": [3],
			"matrix": [1, 0, 0, 0, 0, 0, 1, 0, 0, -1, 0, 0, 0, 0, 0, 1],
			"name": "9e3f8b81f486459db5c281a9e9702290.fbx"
		},
		{
			"children": [4, 6],
			"name": "RootNode"
		},
		{
			"children": [5],
			"matrix": [
				0.99999999999999956,
				1.6543612251060553e-24,
				-2.9802322387695299e-8,
				0,
				-2.9802322387695299e-8,
				0,
				-0.99999999999999956,
				0,
				-1.76551310715828e-24,
				1.0671871900558472,
				0,
				0,
				-10810.4453125,
				-4.2109375,
				425.30081176757812,
				1
			],
			"name": "Circle117"
		},
		{
			"mesh": 0,
			"name": "Circle117_Material #3_0"
		},
		{
			"children": [7, 8],
			"matrix": [
				1,
				0,
				0,
				0,
				0,
				0.99999999999998668,
				1.6292068494294582e-7,
				0,
				0,
				-1.6292068494294582e-7,
				0.99999999999998668,
				0,
				-10809.0078125,
				428.59234619140625,
				7.62939453125e-6,
				1
			],
			"name": "Rectangle081"
		},
		{
			"mesh": 1,
			"name": "Rectangle081_101095_0"
		},
		{
			"mesh": 2,
			"name": "Rectangle081_101095_0"
		}
	],
	"samplers": [
		{
			"magFilter": 9729,
			"minFilter": 9987,
			"wrapS": 10497,
			"wrapT": 10497
		}
	],
	"scene": 0,
	"scenes": [
		{
			"name": "OSG_Scene",
			"nodes": [0]
		}
	],
	"textures": [
		{
			"sampler": 0,
			"source": 0
		},
		{
			"sampler": 0,
			"source": 1
		}
	]
}
